# xmcd CD database file
#
# Track frame offsets:
#	150
#	16488
#	36203
#	59689
#	78487
#	99724
#	120194
#	134216
#	157706
#	173615
#	193836
#
# Disc length: 2895 seconds
#
# Revision: 1
# Processed by: cddbd v1.5.2PL0 Copyright (c) Steve Scherf et al.
# Submitted via: CDex 1.70beta2
#
DISCID=8f0b4d0b
DTITLE=American Aquarium - The Bible and The Bottle
DYEAR=2008
DGENRE=Alt Country
TTITLE0=Down Under
TTITLE1=California
TTITLE2=Road To Nowhere
TTITLE3=Tellin' A Lie
TTITLE4=Bible Black October
TTITLE5=Manhattan
TTITLE6=Come Around This Town
TTITLE7=Monsters
TTITLE8=Stars and Scars
TTITLE9=Lover Too Late
TTITLE10=Clark Ave.
EXTD=YEAR: 2008
EXTT0=
EXTT1=
EXTT2=
EXTT3=
EXTT4=
EXTT5=
EXTT6=
EXTT7=
EXTT8=
EXTT9=
EXTT10=
PLAYORDER=
